:FULLY-SPECIFIED
:FORCE-ALL-JOINTS-BE-3DOF
:DEGREES
1019
root 1.15014 15.1618 32.4435 4.98451 -3.66039 3.7308
lfemur 8.5805 0.615142 5.77804
ltibia -3.73337e-14 0 0
lfoot -30.7889 -11.2682 -1.3523e-05
ltoes -35.0834 0 0
rfemur -32.4328 -16.2012 -6.16979
rtibia 51.1261 -0 0
rfoot -23.1141 4.39378 0.000282952
rtoes -44.052 0 0
lowerback -1.33675 -0.199501 0.413753
upperback -0.577521 -0.261536 -5.99099
thorax 0.126534 -0.140766 -6.44769
lowerneck -7.39004 1.01218 6.1932
upperneck 1.66243 0.660767 3.63508
head 1.7864 0.467484 0.11841
lclavicle 5.05008e-15 5.14946e-15 0
lhumerus -60.4348 -46.0347 117.255
lradius 56.7259 -0 0
lwrist 25.6922 0 0
lhand 37.9228 25.2092 7.14298e-05
lfingers 7.12502 0 0
lthumb 61.1226 39.3178 4.89239e-05
rclavicle 5.05008e-15 5.14946e-15 0
rhumerus 3.01924 -24.4568 0.0548737
rradius 28.3548 -0 0
rwrist -10.9273 0 0
rhand -31.5429 -44.1705 -0.000380618
rfingers 7.12502 0 0
rthumb -4.2305 -74.4666 -0.000360153
1020
root 1.15086 15.1616 32.4458 4.74878 -3.4796 3.55341
lfemur 8.17793 0.575046 5.51452
ltibia -3.58191e-14 0 0
lfoot -29.423 -10.7407 -1.34037e-05
ltoes -33.5525 0 0
rfemur -30.9351 -15.4631 -5.87055
rtibia 49.0304 -0 0
rfoot -22.071 4.17193 0.000247035
rtoes -42.2141 0 0
lowerback -1.27058 -0.189312 0.393731
upperback -0.549422 -0.248248 -5.71188
thorax 0.119836 -0.133638 -6.1469
lowerneck -7.05365 0.964221 5.9056
upperneck 1.58925 0.627845 3.4684
head 1.70578 0.444871 0.113592
lclavicle 5.7837e-15 7.57274e-15 0
lhumerus -57.0638 -46.8984 113.696
lradius 54.4858 -0 0
lwrist 24.5375 0 0
lhand 36.2771 24.0734 6.58343e-05
lfingers 7.12502 0 0
lthumb 58.7633 37.627 4.94162e-05
rclavicle 5.7837e-15 7.57274e-15 0
rhumerus 2.85851 -23.3436 0.0535822
rradius 27.088 -0 0
rwrist -10.4245 0 0
rhand -30.1424 -42.2963 -0.000461995
rfingers 7.12502 0 0
rthumb -4.02965 -71.8515 -0.000446355
1021
root 1.15159 15.1613 32.4482 4.52484 -3.30769 3.3848
lfemur 7.7954 0.536871 5.26413
ltibia -3.43046e-14 0 0
lfoot -28.1101 -10.2389 -1.31645e-05
ltoes -32.0755 0 0
rfemur -29.4976 -14.7589 -5.58731
rtibia 46.9747 -0 0
rfoot -21.073 3.96208 0.000216506
rtoes -40.4239 0 0
lowerback -1.20801 -0.179536 0.374366
upperback -0.522684 -0.23547 -5.44677
thorax 0.113701 -0.126783 -5.86097
lowerneck -6.73374 0.918494 5.63262
upperneck 1.51961 0.596387 3.31009
head 1.62913 0.423301 0.108964
lclavicle 6.51731e-15 9.99601e-15 0
lhumerus -53.7963 -47.6985 109.757
lradius 52.2729 -0 0
lwrist 23.4316 0 0
lhand 34.6856 22.9863 6.14205e-05
lfingers 7.12502 0 0
lthumb 56.4191 35.9897 5.0463e-05
rclavicle 6.51731e-15 9.99601e-15 0
rhumerus 2.70681 -22.2781 0.0526218
rradius 25.8721 -0 0
rwrist -9.94551 0 0
rhand -28.7951 -40.4716 -0.000539373
rfingers 7.12502 0 0
rthumb -3.83861 -69.2005 -0.000531435
1022
root 1.15231 15.161 32.4506 4.32416 -3.15315 3.23351
lfemur 7.45288 0.502071 5.04024
ltibia -3.279e-14 0 0
lfoot -26.9229 -9.78892 -1.28003e-05
ltoes -30.7361 0 0
rfemur -28.1995 -14.1265 -5.33454
rtibia 45.0828 -0 0
rfoot -20.1737 3.77533 0.000195289
rtoes -38.7863 0 0
lowerback -1.15231 -0.170569 0.356436
upperback -0.498616 -0.223708 -5.20959
thorax 0.108562 -0.120474 -5.6048
lowerneck -6.44723 0.877279 5.38877
upperneck 1.45732 0.567827 3.16851
head 1.56054 0.403808 0.104754
lclavicle 7.25092e-15 1.24193e-14 0
lhumerus -50.8341 -48.363 105.692
lradius 50.2238 -0 0
lwrist 22.435 0 0
lhand 33.2393 22.0072 5.90219e-05
lfingers 7.12502 0 0
lthumb 54.2366 34.5001 5.23747e-05
rclavicle 7.25092e-15 1.24193e-14 0
rhumerus 2.5713 -21.3176 0.0522071
rradius 24.7739 -0 0
rwrist -9.51505 0 0
rhand -27.5756 -38.8025 -0.000610942
rfingers 7.12502 0 0
rthumb -3.66701 -66.6852 -0.000612385
1023
root 1.15304 15.1607 32.453 4.15724 -3.02363 3.10734
lfemur 7.16866 0.471912 4.85506
ltibia -3.12755e-14 0 0
lfoot -25.9303 -9.41476 -1.22885e-05
ltoes -29.6136 0 0
rfemur -27.1144 -13.6008 -5.12533
rtibia 43.4774 -0 0
rfoot -19.4233 3.6217 0.000187153
rtoes -37.4029 0 0
lowerback -1.10647 -0.162763 0.340641
upperback -0.478404 -0.213416 -5.01308
thorax 0.104819 -0.114957 -5.39199
lowerneck -6.20963 0.842654 5.18735
upperneck 1.40589 0.543462 3.05133
head 1.50374 0.387329 0.101173
lclavicle 7.98453e-15 1.48426e-14 0
lhumerus -48.3612 -48.8455 101.88
lradius 48.4772 -0 0
lwrist 21.6041 0 0
lhand 32.0249 21.1917 5.94424e-05
lfingers 7.12502 0 0
lthumb 52.3675 33.2489 5.54473e-05
rclavicle 7.98453e-15 1.48426e-14 0
rhumerus 2.45827 -20.5156 0.0525443
rradius 23.856 -0 0
rwrist -9.15578 0 0
rhand -26.5542 -37.3922 -0.000675624
rfingers 7.12502 0 0
rthumb -3.52364 -64.4942 -0.000686645
1024
root 1.15376 15.1605 32.4554 4.03387 -2.92629 3.01353
lfemur 6.95982 0.447516 4.7201
ltibia -2.97609e-14 0 0
lfoot -25.1973 -9.13882 -1.15922e-05
ltoes -28.7837 0 0
rfemur -26.3113 -13.2147 -4.97183
rtibia 42.2782 -0 0
rfoot -18.8689 3.51059 0.000195737
rtoes -36.3718 0 0
lowerback -1.07327 -0.156438 0.327613
upperback -0.463152 -0.205005 -4.86916
thorax 0.102849 -0.110453 -5.2353
lowerneck -6.03549 0.816553 5.04081
upperneck 1.36863 0.524484 2.96573
head 1.46226 0.374733 0.0984177
lclavicle 8.71814e-15 1.72658e-14 0
lhumerus -46.5416 -49.1417 98.8036
lradius 47.1693 -0 0
lwrist 20.9922 0 0
lhand 31.1255 20.5922 6.34542e-05
lfingers 7.12502 0 0
lthumb 50.962 32.3224 5.99587e-05
rclavicle 8.71814e-15 1.72658e-14 0
rhumerus 2.37342 -19.9226 0.0538454
rradius 23.1774 -0 0
rwrist -8.88891 0 0
rhand -25.7977 -36.3396 -0.000733024
rfingers 7.12502 0 0
rthumb -3.41666 -62.822 -0.000752316
1025
root 1.15449 15.1602 32.4578 3.96363 -2.86805 2.95918
lfemur 6.84315 0.429923 4.64666
ltibia -2.82464e-14 0 0
lfoot -24.7872 -8.98306 -1.06653e-05
ltoes -28.3196 0 0
rfemur -25.8572 -13.0002 -4.88594
rtibia 41.6006 -0 0
rfoot -18.5564 3.45119 0.000224588
rtoes -35.7881 0 0
lowerback -1.05544 -0.151895 0.317943
upperback -0.453932 -0.198859 -4.78955
thorax 0.103043 -0.107172 -5.14721
lowerneck -5.93912 0.800859 4.96142
upperneck 1.34881 0.512039 2.9188
head 1.43956 0.366861 0.0966819
lclavicle 9.45175e-15 1.96891e-14 0
lhumerus -45.5264 -49.284 96.9798
lradius 46.4324 -0 0
lwrist 20.6512 0 0
lhand 30.6214 20.2597 7.18005e-05
lfingers 7.12502 0 0
lthumb 50.1665 31.8046 6.61656e-05
rclavicle 9.45175e-15 1.96891e-14 0
rhumerus 2.3223 -19.5875 0.0563473
rradius 22.7958 -0 0
rwrist -8.73523 0 0
rhand -25.3709 -35.7407 -0.000783219
rfingers 7.12502 0 0
rthumb -3.35408 -61.86 -0.000808093
1026
root 1.15521 15.1599 32.4602 3.95658 -2.85617 2.95172
lfemur 6.83625 0.420182 4.64663
ltibia -2.67318e-14 0 0
lfoot -24.7648 -8.97043 -9.45953e-06
ltoes -28.2962 0 0
rfemur -25.821 -12.9909 -4.8803
rtibia 41.5589 -0 0
rfoot -18.5333 3.4533 0.000277229
rtoes -35.7467 0 0
lowerback -1.05588 -0.149433 0.312205
upperback -0.451861 -0.195357 -4.78658
thorax 0.105837 -0.105318 -5.14082
lowerneck -5.93551 0.797526 4.96209
upperneck 1.34985 0.5073 2.91796
head 1.43928 0.364584 0.0961618
lclavicle 1.01854e-14 2.21124e-14 0
lhumerus -45.4687 -49.3061 96.8725
lradius 46.3957 -0 0
lwrist 20.6347 0 0
lhand 30.594 20.2471 8.52022e-05
lfingers 7.12502 0 0
lthumb 50.1222 31.7803 7.4301e-05
rclavicle 1.01854e-14 2.21124e-14 0
rhumerus 2.3108 -19.5612 0.0603361
rradius 22.7703 -0 0
rwrist -8.71636 0 0
rhand -25.34 -35.6912 -0.0008264
rfingers 7.12502 0 0
rthumb -3.34423 -61.7885 -0.00085284
